<svg width="20" height="20" viewBox="0 0 20 20" fill="none" xmlns="http://www.w3.org/2000/svg">
    <g clip-path="url(#clip0_718_267)">
        <path
            d="M3.59583 18.8842C3.49873 18.9659 3.38034 19.0181 3.25455 19.0349C3.12877 19.0516 3.00082 19.0321 2.88575 18.9786C2.77067 18.9251 2.67325 18.8399 2.60492 18.733C2.53659 18.6261 2.50019 18.5019 2.5 18.375V5.04167C2.5 4.86486 2.57024 4.69529 2.69526 4.57026C2.82029 4.44524 2.98986 4.375 3.16667 4.375H17.8333C18.0101 4.375 18.1797 4.44524 18.3047 4.57026C18.4298 4.69529 18.5 4.86486 18.5 5.04167V15.7083C18.5 15.8851 18.4298 16.0547 18.3047 16.1797C18.1797 16.3048 18.0101 16.375 17.8333 16.375H6.70833C6.55129 16.375 6.3993 16.4305 6.27917 16.5317L3.59583 18.8842Z"
            stroke="#555555" stroke-width="1.4" stroke-linecap="round" stroke-linejoin="round" />
    </g>
    <defs>
        <clipPath id="clip0_718_267">
            <rect width="20" height="20" fill="white" />
        </clipPath>
    </defs>
</svg>