<svg width="24" height="25" viewBox="0 0 24 25" fill="none" xmlns="http://www.w3.org/2000/svg">
    <path
        d="M9.75 3.6875H5.25C4.9019 3.6875 4.56806 3.82578 4.32192 4.07192C4.07578 4.31806 3.9375 4.6519 3.9375 5V20C3.9375 20.3481 4.07578 20.6819 4.32192 20.9281C4.56806 21.1742 4.9019 21.3125 5.25 21.3125H9.75C9.92236 21.3125 10.093 21.2786 10.2523 21.2126C10.4115 21.1466 10.5562 21.05 10.6781 20.9281C10.8 20.8062 10.8966 20.6615 10.9626 20.5023C11.0286 20.343 11.0625 20.1724 11.0625 20V5C11.0625 4.82764 11.0286 4.65697 10.9626 4.49773C10.8966 4.33849 10.8 4.1938 10.6781 4.07192C10.5562 3.95005 10.4115 3.85337 10.2523 3.78741C10.093 3.72145 9.92236 3.6875 9.75 3.6875ZM5.0625 7.8125H9.9375V17.1875H5.0625V7.8125ZM5.25 4.8125H9.75C9.79973 4.8125 9.84742 4.83225 9.88258 4.86742C9.91775 4.90258 9.9375 4.95027 9.9375 5V6.6875H5.0625V5C5.0625 4.95027 5.08225 4.90258 5.11742 4.86742C5.15258 4.83225 5.20027 4.8125 5.25 4.8125ZM9.75 20.1875H5.25C5.20027 20.1875 5.15258 20.1677 5.11742 20.1326C5.08225 20.0974 5.0625 20.0497 5.0625 20V18.3125H9.9375V20C9.9375 20.0497 9.91775 20.0974 9.88258 20.1326C9.84742 20.1677 9.79973 20.1875 9.75 20.1875ZM21.5344 18.7812L18.4228 3.98375C18.3877 3.81435 18.3194 3.65356 18.222 3.51064C18.1245 3.36771 17.9997 3.24547 17.8548 3.15094C17.7099 3.0564 17.5478 2.99145 17.3777 2.95981C17.2076 2.92817 17.0329 2.93046 16.8638 2.96656L12.4753 3.90969C12.1357 3.98434 11.8392 4.18991 11.6502 4.48178C11.4611 4.77366 11.3948 5.1283 11.4656 5.46875L14.5772 20.2634C14.6126 20.4334 14.6814 20.5947 14.7795 20.7379C14.8777 20.8812 15.0033 21.0035 15.1491 21.0978C15.36 21.2358 15.6066 21.3095 15.8588 21.3097C15.9533 21.3102 16.0477 21.3001 16.14 21.2797L20.5284 20.3375C20.8668 20.262 21.1619 20.0565 21.3501 19.7654C21.5383 19.4742 21.6045 19.1208 21.5344 18.7812ZM13.7709 10.97L18.5269 9.94812L19.8506 16.2444L15.0938 17.2634L13.7709 10.97ZM13.1494 8.01125L17.9062 6.98656L18.2953 8.84375L13.5394 9.86562L13.1494 8.01125ZM12.7125 5.01125L17.1 4.06906C17.1131 4.0678 17.1263 4.0678 17.1394 4.06906C17.1744 4.0691 17.2087 4.07954 17.2378 4.09906C17.2593 4.11277 17.2779 4.13074 17.2922 4.15186C17.3066 4.17298 17.3164 4.1968 17.3212 4.22188L17.6728 5.8925L12.9178 6.90687L12.5672 5.24C12.5562 5.19018 12.5653 5.13804 12.5925 5.09488C12.6197 5.05172 12.6628 5.021 12.7125 5.00938V5.01125ZM20.2884 19.2425L15.9 20.1875C15.8765 20.1927 15.8522 20.1932 15.8285 20.1888C15.8049 20.1845 15.7823 20.1754 15.7622 20.1622C15.7407 20.1485 15.7221 20.1305 15.7078 20.1094C15.6934 20.0883 15.6836 20.0644 15.6788 20.0394L15.3272 18.3688L20.0822 17.3469L20.4375 19.0091C20.443 19.0341 20.4435 19.0599 20.439 19.0851C20.4345 19.1103 20.425 19.1343 20.4112 19.1559C20.3973 19.1774 20.3793 19.196 20.3583 19.2105C20.3372 19.2251 20.3135 19.2353 20.2884 19.2406V19.2425Z"
        fill="#555555" />
</svg>